<svg width="54" height="47" viewBox="0 0 54 47" fill="none" xmlns="http://www.w3.org/2000/svg">
<ellipse cx="27" cy="23.5" rx="27" ry="23.5" fill="#F4F7FE"/>
<path opacity="0.35" d="M34.2573 33.3398H18.8287C16.6983 33.3398 14.9716 31.8369 14.9716 29.9826V16.554C14.9716 14.6998 16.6983 13.1969 18.8287 13.1969H34.2573C36.3877 13.1969 38.1144 14.6998 38.1144 16.554V29.9826C38.1144 31.8369 36.3877 33.3398 34.2573 33.3398Z" fill="#5F41B2"/>
<path d="M38.1144 26.6255V29.9826C38.1144 31.8369 36.3877 33.3398 34.2573 33.3398H18.8287C16.6983 33.3398 14.9716 31.8369 14.9716 29.9826V26.6255H20.5541C21.584 26.6255 22.5881 27.1078 22.988 27.9337C23.573 29.1389 24.9423 29.9826 26.543 29.9826C28.1437 29.9826 29.513 29.1389 30.098 27.9337C30.4978 27.1078 31.5007 26.6255 32.5318 26.6255H38.1144Z" fill="#5F41B2"/>
</svg>
