<svg width="54" height="47" viewBox="0 0 54 47" fill="none" xmlns="http://www.w3.org/2000/svg">
<ellipse cx="27" cy="23.5" rx="27" ry="23.5" fill="#F4F7FE"/>
<path opacity="0.35" d="M24.6146 12.0781C18.5795 12.0781 13.686 16.3372 13.686 21.59C13.686 23.1041 14.1026 24.5298 14.8265 25.801L13.7285 29.6237C13.4777 30.4943 14.3842 31.2832 15.3845 31.065L19.7765 30.1093C21.237 30.7394 22.875 31.1019 24.6146 31.1019C30.6497 31.1019 35.5432 26.8428 35.5432 21.59C35.5432 16.3372 30.6497 12.0781 24.6146 12.0781Z" fill="#5F41B2"/>
<path d="M37.7252 27.2937L39.3593 32.9807C39.61 33.8513 38.7036 34.6402 37.7033 34.422L31.1693 32.9997L37.7252 27.2937Z" fill="#5F41B2"/>
<path d="M34.0184 16.7625C34.9814 18.178 35.5433 19.8253 35.5433 21.59C35.5433 26.8428 30.6498 31.1019 24.6147 31.1019C22.5871 31.1019 20.6945 30.6129 19.0681 29.7747C20.9697 32.5757 24.4643 34.4591 28.4718 34.4591C34.507 34.4591 39.4004 30.2 39.4004 24.9472C39.4004 21.4591 37.2365 18.4175 34.0184 16.7625Z" fill="#5F41B2"/>
</svg>
